<svg width="108" height="17" viewBox="0 0 108 17" fill="none" xmlns="http://www.w3.org/2000/svg">
    <path
        d="M104.322 1.09931C105.987 1.05953 107.385 1.06808 107.427 1.11844C107.514 1.22275 107.527 2.28203 107.447 2.8541C107.401 3.1928 107.338 3.23821 106.915 3.23821C106.618 3.23821 106.456 3.17333 106.49 3.06749C106.521 2.97035 106.445 2.89678 106.314 2.89678C106.183 2.89678 106.107 2.97035 106.138 3.06749C106.173 3.17743 105.843 3.23821 105.213 3.23821C104.583 3.23821 104.253 3.17743 104.288 3.06749C104.318 2.9736 104.509 2.8956 104.712 2.89423C104.915 2.8927 105.13 2.83087 105.19 2.75661C105.343 2.569 102.918 2.53724 102.218 2.71768C101.713 2.84811 101.772 2.86228 102.725 2.83838C103.318 2.82353 103.804 2.82439 103.804 2.84009C103.804 2.85597 103.824 2.97343 103.85 3.10129C103.888 3.29318 103.637 3.32477 102.419 3.28209C99.5762 3.18257 99.3737 3.16071 99.3363 2.94783C99.3113 2.80665 99.4729 2.724 99.8565 2.68201C100.163 2.64855 98.669 2.59153 96.5376 2.55551C94.4062 2.51932 91.8895 2.47597 90.9449 2.4589C90.0003 2.442 87.87 2.41688 86.2109 2.40305C83.4938 2.38052 82.8076 2.27894 83.3869 1.98531C83.4929 1.93171 83.7406 1.92898 83.9374 1.97952C84.1343 2.02988 84.3943 1.99743 84.5154 1.90712C84.6972 1.77174 84.6129 1.72313 84.031 1.62821C82.8246 1.4312 82.9165 1.40746 84.9778 1.38356C86.2207 1.36922 86.9815 1.42316 86.9815 1.52576C86.9815 1.62068 86.5213 1.71422 85.9026 1.74495C85.3092 1.77448 85.8443 1.81529 87.0916 1.8356C88.867 1.86445 89.3548 1.82622 89.3375 1.65909C89.3249 1.53703 89.4244 1.42162 89.5699 1.38935C89.7716 1.34479 89.8131 1.38884 89.7708 1.60274C89.7276 1.82092 89.7848 1.87249 90.0707 1.87249C90.3585 1.87249 90.4193 1.817 90.3983 1.57374C90.374 1.29291 90.6237 1.27394 94.5649 1.2579C96.8709 1.24851 98.7931 1.20176 98.8365 1.15378C98.88 1.10581 99.1931 1.12883 99.5321 1.20463C99.8712 1.2806 100.307 1.33765 100.501 1.33133C100.835 1.32058 100.84 1.31358 100.589 1.1963C100.365 1.09131 100.349 1.05203 100.486 0.93714C100.574 0.862708 100.792 0.885075 100.97 0.986821C101.186 1.11042 102.298 1.14779 104.322 1.09931Z"
        fill="#893333" />
    <path
        d="M89.0513 14.7206C92.6734 14.5388 107.33 14.3273 107.441 14.4554C107.48 14.5001 107.497 14.6257 107.478 14.7345C107.457 14.8606 107.145 14.9501 106.616 14.9818C106.16 15.0092 105.75 15.1027 105.705 15.1898C105.655 15.2871 105.964 15.3081 106.506 15.2439C107.151 15.1677 107.407 15.1954 107.455 15.346C107.491 15.4595 107.506 15.58 107.489 15.6138C107.466 15.6577 88.142 16.1767 83.1063 16.2687C82.9367 16.2718 81.609 16.2542 80.1558 16.2296C78.3902 16.1997 77.3604 16.2508 77.0519 16.3832C76.6484 16.5567 76.5716 16.5453 76.4412 16.2924C76.3046 16.0275 75.9398 16.0068 72.1027 16.0454C66.187 16.1048 62.7328 16.0282 63.5097 15.8546C64.0856 15.7258 71.8827 15.3605 74.4309 15.3429C75.0606 15.3385 75.6439 15.2828 75.7269 15.219C75.81 15.1551 73.8977 15.1029 71.4773 15.1029C69.0571 15.1029 67.0768 15.1676 67.0768 15.2468C67.0767 15.3258 66.8488 15.3402 66.5703 15.2787C66.2918 15.2173 65.8062 15.1603 65.4914 15.1519C65.0283 15.1398 58.6955 15.3407 58.0491 15.3881C57.9522 15.3951 57.7144 15.3823 57.5206 15.3596C56.7364 15.2674 7.75059 15.5141 4.24593 15.6278C1.03182 15.7323 0.47512 15.7151 0.509559 15.5121C0.532363 15.3779 0.720565 15.2314 0.939605 15.1771L1.32909 15.0809L0.932746 15.0064C0.656196 14.9547 0.536414 14.8548 0.536414 14.6761C0.536414 14.4499 2.24409 14.4101 15.2008 14.3347C29.2738 14.2527 32.2598 14.2876 32.0671 14.5315C32.0186 14.5928 31.7666 14.646 31.5069 14.65C31.2473 14.6537 31.0127 14.6997 30.9858 14.7519C30.9588 14.8041 32.1225 14.8389 33.5717 14.8294C35.1477 14.8188 36.0835 14.7558 35.9005 14.6723C35.7321 14.5955 35.564 14.5692 35.5269 14.6136C35.4897 14.6582 35.3963 14.6262 35.3193 14.5428C35.1912 14.4036 41.055 14.2147 49.5058 14.0853C51.1528 14.0602 56.2656 13.9465 60.8674 13.8328C65.4693 13.7191 71.018 13.6112 73.1979 13.5929C75.3777 13.5748 77.399 13.4976 77.6897 13.4213C78.0523 13.3264 78.178 13.3372 78.0906 13.4557C77.827 13.8126 78.5109 13.8743 81.6279 13.774C85.1451 13.661 92.0819 13.8292 91.2531 14.0074C90.9625 14.0699 88.8223 14.1718 86.4971 14.2339C84.172 14.2961 81.5363 14.3905 80.6402 14.4437C77.3148 14.6416 78.0879 14.7615 82.6879 14.7615C85.4093 14.7615 87.4219 14.6966 87.4219 14.6088C87.4219 14.5204 87.6899 14.5155 88.0604 14.5974C88.4117 14.6749 88.8575 14.7304 89.0513 14.7206Z"
        fill="#893333" />
    <path
        d="M98.0129 13.7785C97.6858 13.7455 97.9534 13.7187 98.6074 13.7187C99.2613 13.7187 99.5289 13.7455 99.2019 13.7785C98.8748 13.8112 98.3399 13.8112 98.0129 13.7785Z"
        fill="#893333" />
    <path
        d="M98.6719 2.87406C98.7268 2.76771 98.8338 2.7269 98.9097 2.78341C99.1198 2.93961 99.075 3.06749 98.8099 3.06749C98.6328 3.06749 98.5976 3.01814 98.6719 2.87406Z"
        fill="#893333" />
    <path
        d="M97.6826 2.89678C97.7125 2.80288 97.8163 2.72606 97.9132 2.72606C98.01 2.72606 98.0648 2.80288 98.0349 2.89678C98.0049 2.99067 97.9012 3.06749 97.8043 3.06749C97.7074 3.06749 97.6526 2.99067 97.6826 2.89678Z"
        fill="#893333" />
    <path
        d="M95.6128 13.8225C95.6128 13.6289 96.1817 13.5989 96.7895 13.7604C97.0143 13.8201 97.1982 13.897 97.1982 13.9311C97.1982 13.9652 96.8415 13.9932 96.4055 13.9932C95.9358 13.9932 95.6128 13.9238 95.6128 13.8225Z"
        fill="#893333" />
    <path
        d="M95.1284 3.06749C95.0941 2.95977 95.3054 2.89678 95.7009 2.89678C96.0964 2.89678 96.3077 2.95977 96.2734 3.06749C96.2434 3.16138 95.9858 3.23821 95.7009 3.23821C95.416 3.23821 95.1584 3.16138 95.1284 3.06749Z"
        fill="#893333" />
    <path
        d="M94.1871 13.9391C94.1169 13.8847 94.1378 13.8442 94.2404 13.836C94.3332 13.8287 94.3852 13.869 94.3559 13.9256C94.3267 13.9823 94.2507 13.9885 94.1871 13.9391Z"
        fill="#893333" />
    <path
        d="M93.8348 13.9391C93.7646 13.8847 93.7855 13.8442 93.8881 13.836C93.9809 13.8287 94.0329 13.869 94.0036 13.9256C93.9744 13.9823 93.8984 13.9885 93.8348 13.9391Z"
        fill="#893333" />
    <path
        d="M92.7779 13.9391C92.7077 13.8847 92.7286 13.8442 92.8312 13.836C92.924 13.8287 92.976 13.869 92.9467 13.9256C92.9175 13.9823 92.8415 13.9885 92.7779 13.9391Z"
        fill="#893333" />
    <path
        d="M92.266 2.87852C92.266 2.70012 92.5612 2.67227 92.6489 2.84247C92.734 3.00721 92.5259 3.22421 92.3841 3.11871C92.3191 3.07057 92.266 2.96234 92.266 2.87852Z"
        fill="#893333" />
    <path
        d="M89.9595 3.35482C89.8893 3.30036 89.9102 3.2599 90.0128 3.25171C90.1056 3.24437 90.1576 3.28464 90.1283 3.34132C90.0991 3.39799 90.0231 3.40416 89.9595 3.35482Z"
        fill="#893333" />
    <path
        d="M88.8311 3.15285C88.8311 3.01201 88.8905 2.89678 88.9632 2.89678C89.0359 2.89678 89.0953 3.01201 89.0953 3.15285C89.0953 3.29369 89.0359 3.40892 88.9632 3.40892C88.8905 3.40892 88.8311 3.29369 88.8311 3.15285Z"
        fill="#893333" />
    <path
        d="M78.7557 1.56861C79.2773 1.36034 82.2973 1.29019 82.5383 1.48071C82.6343 1.55668 81.7976 1.6562 80.6402 1.70656C79.5018 1.75607 78.6199 1.81377 78.6805 1.8346C78.741 1.85543 78.7906 1.93752 78.7906 2.01707C78.7906 2.09662 76.2045 2.20504 73.0437 2.25814C68.7412 2.33035 67.2305 2.40835 67.0327 2.56814C66.824 2.73664 63.2418 2.77626 49.9961 2.75594C39.9736 2.74058 33.2037 2.66735 33.1738 2.57414C33.1094 2.37253 29.457 2.37848 29.3257 2.58043C29.2674 2.66989 28.9338 2.66936 28.5179 2.57922C28.126 2.49421 27.639 2.48943 27.4281 2.5683C26.8552 2.78289 24.5903 2.76158 24.4762 2.54051C24.3811 2.35613 23.5972 2.40682 22.7896 2.64974C22.5492 2.72213 22.3713 2.69431 22.3096 2.57464C22.1652 2.29484 21.6641 2.34349 21.5044 2.65283C21.4283 2.8005 21.366 2.83923 21.366 2.73902C21.366 2.61406 20.5653 2.55994 18.8119 2.56643C17.2803 2.57206 16.2577 2.6402 16.2577 2.73631C16.2577 2.93605 15.7548 2.95056 15.7146 2.75202C15.6984 2.6723 14.8211 2.55792 13.765 2.49766C12.4355 2.42203 11.8624 2.44337 11.9018 2.56714C11.9342 2.66905 12.0691 2.69908 12.2146 2.63712C12.4031 2.55688 12.4705 2.59188 12.4705 2.77011C12.4705 2.97292 11.8929 3.03026 8.88904 3.125C4.31252 3.2696 2.64941 3.26807 2.72613 3.11938C2.83446 2.90957 3.03993 2.89524 6.17318 2.88039C7.86861 2.8722 9.43414 2.80543 9.65212 2.73185L10.0485 2.59802L9.69616 2.56593C9.18295 2.51915 3.76214 2.59136 3.39883 2.64991C3.22929 2.67722 2.61497 2.75814 2.03368 2.82984C1.36194 2.91246 1.05702 3.00449 1.19697 3.08199C1.36793 3.17691 1.32449 3.20797 1.00276 3.22111C0.600349 3.23767 0.586891 3.22181 0.533249 2.66767C0.502869 2.35389 0.491142 1.87574 0.507172 1.60516C0.53289 1.17222 0.583885 1.09488 0.932747 0.960017C1.19627 0.858271 1.5092 0.875509 1.86635 1.01174C2.27246 1.16658 2.49431 1.16913 2.775 1.02266C3.57225 0.606628 38.6522 0.279378 38.8621 0.686191C38.976 0.906926 47.2781 0.928243 64.9658 0.75292C76.6355 0.637346 77.6185 0.649315 77.7523 0.908631C77.8321 1.06313 77.9576 1.18963 78.0313 1.18963C78.105 1.18963 78.2011 1.31357 78.2449 1.46516C78.3124 1.69921 78.3896 1.71474 78.7557 1.56861Z"
        fill="#893333" />
    <path
        d="M56.9922 15.9187L57.961 15.9057C58.5837 15.8974 58.8626 15.9454 58.7418 16.0399C58.6384 16.1207 58.2024 16.1266 57.7729 16.0529L56.9922 15.9187Z"
        fill="#893333" />
    <path
        d="M55.4299 16.1625C55.3203 16.1217 55.3892 16.0867 55.583 16.0848C55.7767 16.0829 55.8664 16.1164 55.7822 16.1591C55.698 16.2018 55.5395 16.2033 55.4299 16.1625Z"
        fill="#893333" />
    <path
        d="M33.3442 14.5054C33.3442 14.4057 33.6395 14.3347 34.054 14.3347C34.5047 14.3347 34.7438 14.397 34.7093 14.5054C34.6794 14.5993 34.36 14.6761 33.9995 14.6761C33.6213 14.6761 33.3442 14.6039 33.3442 14.5054Z"
        fill="#893333" />
    <path
        d="M32.7834 14.3347C32.9304 14.3347 33.0808 14.3924 33.1177 14.4627C33.1547 14.533 33.0772 14.616 32.9455 14.6467C32.8139 14.6776 32.6634 14.6199 32.6112 14.5187C32.5433 14.3871 32.5924 14.3347 32.7834 14.3347Z"
        fill="#893333" />
</svg>