<svg width="178" height="48" viewBox="0 0 178 48" fill="none" xmlns="http://www.w3.org/2000/svg">
<path d="M0.887781 0.882105L5.54863 0.667082C8.11165 0.549279 47.9623 0.351282 94.1047 0.226382L178 0L177.75 18.5001C177.611 28.6752 177.212 37.0003 176.862 36.9995C176.511 36.9988 176.126 30.6921 176.006 22.9838C175.885 15.2754 175.614 8.01064 175.401 6.83971C175.188 5.66877 174.988 4.14441 174.954 3.4532C174.898 2.30001 173.729 2.2035 160.91 2.29647C153.219 2.35182 121.959 2.36175 91.4414 2.31846C60.9239 2.27446 34.5569 2.37595 32.8479 2.54272C31.1389 2.70949 23.8662 2.86632 16.6858 2.89116L3.63191 2.93657L3.0939 5.5978C1.60953 12.952 1.07244 13.3217 0.979219 7.05402L0.887781 0.882105Z" fill="#C15959"/>
<path d="M0 48V36.1132C0 29.5751 0.324917 24.2264 0.721755 24.2264C1.11859 24.2264 1.51456 25.7429 1.60068 27.5973C1.68679 29.4516 2.00906 34.2418 2.31623 38.2422L2.87553 45.5162L7.42982 45.5744C9.93514 45.6063 15.7803 45.7333 20.419 45.8561C25.0576 45.9796 37.1226 46.1918 47.2299 46.328C77.0904 46.7304 65.504 47.8694 30.8504 47.9383L0 48Z" fill="#C15959"/>
<path d="M176.668 41.2582C176.18 41.2582 175.781 40.9389 175.781 40.5486C175.781 40.1583 176.18 39.8389 176.668 39.8389C177.157 39.8389 177.556 40.1583 177.556 40.5486C177.556 40.9389 177.157 41.2582 176.668 41.2582Z" fill="#C15959"/>
<path d="M157.117 46.1116C170.097 46.2571 176.284 46.0832 176.5 45.5659C177.013 44.3346 177.556 44.6951 177.556 46.2677C177.556 47.7282 177.537 47.7289 123.049 47.5969C93.0705 47.5238 68.0013 47.191 67.3408 46.856C66.6563 46.509 77.0132 46.2301 91.4414 46.2074C105.357 46.1847 121.537 46.1066 127.397 46.0321C133.256 45.9583 146.629 45.9945 157.117 46.1116Z" fill="#C15959"/>
</svg>
