<svg width="808" height="611" viewBox="0 0 808 611" fill="none" xmlns="http://www.w3.org/2000/svg">
    <path
        d="M0.0723362 9.25906C3.52339 6.99169 70.6368 4.35972 149.213 3.40833C227.79 2.46265 405.788 1.11248 544.775 0.411756C772.284 -0.733321 798.02 0.0756502 802.945 8.50137C805.945 13.6514 806.457 19.1432 804.072 20.7098C801.688 22.2765 797.291 19.3767 794.308 14.2723C789.539 6.10865 775.059 5.36238 674.883 8.10828C496.92 12.9962 -6.93382 13.8565 0.0723362 9.25906Z"
        fill="#893333" />
    <path
        d="M772.301 610.905C772.25 610.951 772.203 610.982 772.158 611C772.206 610.97 772.254 610.938 772.301 610.905C773.033 610.233 774.332 606.539 775.97 600.173C779.054 576.516 779.039 504.114 785.924 281.474C788.438 200.196 793.858 131.486 797.959 128.791C802.13 126.051 797.057 233.213 797.959 371.5C798.679 482.351 783.624 570.431 775.97 600.173C775.083 606.98 773.939 609.751 772.301 610.905Z"
        fill="#893333" />
    <path
        d="M805.251 51.4845C802.485 56.0249 800.43 54.6748 800.014 48.0379C799.641 42.0333 801.688 38.6722 804.566 40.5636C807.445 42.4549 807.757 47.3713 805.251 51.4845Z"
        fill="#893333" />
    <path
        d="M799.875 116.15C795.41 114.333 791.967 102.683 792.227 90.2576C792.488 77.827 796.138 69.0594 800.352 70.7685C804.558 72.4776 808 84.1277 808 96.6609C808 109.382 804.41 117.99 799.875 116.15Z"
        fill="#893333" />
</svg>